#!OML:ASF F:\VICON\USERDATA\INSTALL\rory3\rory3.ASF
:FULLY-SPECIFIED
:DEGREES
337
root -0.133133 17.9647 -0.543432 2.77321 -9.55009 2.11199
lowerback -0.725951 -2.12086 -4.00973
upperback -0.748642 -2.8116 2.40918
thorax -0.0488846 -1.39349 4.70761
lowerneck -29.6173 -0.348445 -8.02087
upperneck 13.294 1.66477 5.05007
head 8.78405 0.941893 3.30324
rclavicle -4.89756e-014 3.97569e-015
rhumerus -31.695 1.61976 -81.7182
rradius 31.2453
rwrist 18.9295
rhand -18.0679 8.78001
rfingers 7.12502
rthumb 8.20477 -21.0407
lclavicle -4.89756e-014 3.97569e-015
lhumerus 36.3935 -8.74967 53.8626
lradius 94.2809
lwrist -3.95504
lhand -36.5664 23.9909
lfingers 7.12502
lthumb -9.65629 53.7496
rfemur -7.86187 8.6251 14.3888
rtibia 25.8868
rfoot -17.6231 -3.73292
rtoes 4.11469
lfemur 1.58278 -2.69805 -22.6235
ltibia 10.7718
lfoot -10.2917 6.23274
ltoes -13.6402
338
root -0.13062 17.9646 -0.555826 2.76815 -9.52452 1.98985
lowerback -0.602716 -2.13062 -3.86662
upperback -0.699685 -2.82901 2.43426
thorax -0.0711553 -1.40304 4.65629
lowerneck -29.5771 -0.346739 -8.01751
upperneck 13.8033 1.67261 4.98363
head 8.95715 0.928011 3.29125
rclavicle -1.0958e-014 2.3059e-014
rhumerus -31.6411 1.72181 -81.7709
rradius 31.2962
rwrist 18.8592
rhand -18.1129 8.90652
rfingers 7.12502
rthumb 8.16136 -20.9159
lclavicle -1.0958e-014 2.3059e-014
lhumerus 35.5204 -9.35906 54.3995
lradius 93.9927
lwrist -3.53592
lhand -36.3416 24.5533
lfingers 7.12502
lthumb -9.43938 54.3219
rfemur -7.84527 8.71591 14.536
rtibia 25.8243
rfoot -17.6056 -3.88359
rtoes 4.32189
lfemur 1.41406 -2.60191 -22.4815
ltibia 11.0594
lfoot -10.3974 6.16016
ltoes -13.9416
339
root -0.12731 17.9658 -0.565349 2.78078 -9.52085 1.79924
lowerback -0.577548 -2.1401 -3.63332
upperback -0.610913 -2.84306 2.46082
thorax -0.00218643 -1.41403 4.55056
lowerneck -29.4006 -0.336348 -7.93944
upperneck 14.1307 1.66804 4.84624
head 9.04738 0.906249 3.2341
rclavicle -5.21313e-014 1.59028e-014
rhumerus -31.4826 1.63311 -81.8225
rradius 31.2875
rwrist 18.9161
rhand -18.1784 9.02543
rfingers 7.12502
rthumb 8.09813 -20.7994
lclavicle -5.21313e-014 1.59028e-014
lhumerus 34.6713 -9.92827 54.9215
lradius 93.6928
lwrist -3.07632
lhand -36.1474 24.8421
lfingers 7.12502
lthumb -9.252 54.6191
rfemur -7.84447 8.81631 14.7471
rtibia 25.7904
rfoot -17.631 -3.95415
rtoes 4.68718
lfemur 1.26755 -2.54742 -22.2755
ltibia 11.32
lfoot -10.5024 6.13872
ltoes -13.7185
340
root -0.125214 17.9674 -0.5784 2.79018 -9.53939 1.67928
lowerback -0.555723 -2.13809 -3.50107
upperback -0.519449 -2.84149 2.48152
thorax 0.0741964 -1.41699 4.49593
lowerneck -29.2427 -0.325559 -7.90217
upperneck 14.532 1.67895 4.72364
head 9.16531 0.889737 3.19296
rclavicle -1.15295e-014 1.19271e-014
rhumerus -31.3449 1.62557 -81.8821
rradius 31.3698
rwrist 18.7948
rhand -18.2093 8.9333
rfingers 7.12502
rthumb 8.06838 -20.8927
lclavicle -1.15295e-014 1.19271e-014
lhumerus 33.8103 -10.5048 55.461
lradius 93.473
lwrist -2.52462
lhand -35.9518 25.0744
lfingers 7.12502
lthumb -9.06326 54.8597
rfemur -7.88963 8.91548 14.8864
rtibia 25.7719
rfoot -17.5708 -4.05243
rtoes 4.52097
lfemur 1.11579 -2.57035 -22.1386
ltibia 11.5312
lfoot -10.5679 6.17033
ltoes -13.3136
341
root -0.122942 17.9678 -0.590282 2.81434 -9.60338 1.75353
lowerback -0.569055 -2.13548 -3.58285
upperback -0.468596 -2.83737 2.4758
thorax 0.137178 -1.41725 4.53444
lowerneck -29.1415 -0.290294 -7.89495
upperneck 15.0767 1.736 4.61789
head 9.33984 0.892131 3.17377
rclavicle 1.59028e-015 -4.77083e-015
rhumerus -31.2789 1.75771 -81.9044
rradius 31.4427
rwrist 18.7315
rhand -18.3172 8.8172
rfingers 7.12502
rthumb 7.96422 -21.0128
lclavicle 1.59028e-015 -4.77083e-015
lhumerus 32.9339 -11.0225 56.0563
lradius 93.2519
lwrist -1.85163
lhand -35.7168 25.0896
lfingers 7.12502
lthumb -8.83657 54.8846
rfemur -8.0063 8.95625 14.7813
rtibia 25.7989
rfoot -17.4926 -4.04582
rtoes 4.71783
lfemur 1.00479 -2.4752 -22.2198
ltibia 11.6041
lfoot -10.5316 6.1559
ltoes -13.7989
